<svg width="43" height="43" viewBox="0 0 43 43" fill="none" xmlns="http://www.w3.org/2000/svg">
<circle cx="21.6293" cy="21.5" r="21.1121" fill="#A1A3AF"/>
<circle cx="21.5" cy="21.5" r="19.5" fill="#BDBEC6"/>
<path fill-rule="evenodd" clip-rule="evenodd" d="M16.5768 39.3641C29.0339 39.3641 39.1324 29.2656 39.1324 16.8085C39.1324 13.225 38.2967 9.83666 36.8096 6.82776C40.4819 10.6264 42.7413 15.7993 42.7413 21.5001C42.7413 33.1599 33.2891 42.6121 21.6293 42.6121C16.4912 42.6121 11.7818 40.7767 8.12097 37.7256C10.7323 38.7823 13.5866 39.3641 16.5768 39.3641Z" fill="#A1A3AF"/>
<circle cx="24.6969" cy="32.1463" r="4.15024" fill="#A1A3AF"/>
<circle cx="30.1102" cy="17.8911" r="2.70668" fill="#A1A3AF"/>
<circle cx="15.5844" cy="18.8835" r="2.25556" fill="#A1A3AF"/>
<circle cx="19.8249" cy="11.0342" r="0.72178" fill="#A1A3AF"/>
<circle cx="11.7048" cy="9.59065" r="0.72178" fill="#A1A3AF"/>
<circle cx="27.4035" cy="9.59065" r="0.72178" fill="#A1A3AF"/>
<circle cx="35.1627" cy="11.756" r="0.72178" fill="#A1A3AF"/>
<circle cx="37.1475" cy="25.4698" r="0.72178" fill="#A1A3AF"/>
<circle cx="11.7048" cy="30.1613" r="1.08267" fill="#A1A3AF"/>
<circle cx="15.6745" cy="38.4618" r="1.08267" fill="#A1A3AF"/>
<circle cx="6.11099" cy="19.5151" r="1.08267" fill="#A1A3AF"/>
<circle cx="23.6142" cy="5.80127" r="1.08267" fill="#A1A3AF"/>
</svg>
